<svg width="100" height="100" viewBox="0 0 100 100" fill="none" xmlns="http://www.w3.org/2000/svg">
<g id="logo">
<g id="cubeTop">
<path id="Polygon 1" d="M30.5302 19.705L50 8.4641L69.4699 19.705V42.1869L50 53.4278L30.5302 42.1869V19.705Z" stroke="#0EA7FF" stroke-width="6"/>
<path id="Polygon 2" d="M33.4962 18.0049L50 8.46513L66.5039 18.0049L50 27.7832L33.4962 18.0049Z" stroke="#0EA7FF" stroke-width="6"/>
<line id="Line 3" x1="50" y1="50.6216" x2="50" y2="25" stroke="#0EA7FF" stroke-width="6"/>
</g>
<g id="cubeTop_2">
<path id="Polygon 1_2" d="M11.4761 53.705L30.9459 42.4641L50.4158 53.705V76.1869L30.9459 87.4278L11.4761 76.1869V53.705Z" stroke="#0EA7FF" stroke-width="6"/>
<path id="Polygon 2_2" d="M14.4421 52.0049L30.946 42.4651L47.4498 52.0049L30.946 61.7832L14.4421 52.0049Z" stroke="#0EA7FF" stroke-width="6"/>
<line id="Line 3_2" x1="30.9459" y1="84.6216" x2="30.9459" y2="59" stroke="#0EA7FF" stroke-width="6"/>
</g>
<g id="cubeTop_3">
<path id="Polygon 1_3" d="M49.4761 53.705L68.9459 42.4641L88.4158 53.705V76.1869L68.9459 87.4278L49.4761 76.1869V53.705Z" stroke="#0EA7FF" stroke-width="6"/>
<path id="Polygon 2_3" d="M52.4421 52.0049L68.946 42.4651L85.4498 52.0049L68.946 61.7832L52.4421 52.0049Z" stroke="#0EA7FF" stroke-width="6"/>
<line id="Line 3_3" x1="68.9459" y1="84.6216" x2="68.9459" y2="59" stroke="#0EA7FF" stroke-width="6"/>
</g>
</g>
</svg>
