<svg id="svg" version="1.1" xmlns="http://www.w3.org/2000/svg" xmlns:xlink="http://www.w3.org/1999/xlink" width="400" height="368.4375" viewBox="0, 0, 400,368.4375"><g id="svgg"><path id="path0" d="M190.694 0.310 C 189.958 0.467,188.833 0.876,188.194 1.218 C 187.177 1.763,184.558 2.959,182.656 3.747 C 181.513 4.221,178.919 5.346,177.969 5.779 C 174.184 7.505,172.674 8.148,172.012 8.314 C 171.593 8.419,171.250 8.607,171.250 8.732 C 171.250 8.856,171.074 8.960,170.859 8.962 C 170.645 8.964,169.766 9.297,168.906 9.702 C 168.047 10.106,167.273 10.445,167.188 10.455 C 166.711 10.509,159.813 13.608,159.653 13.839 C 159.547 13.991,159.407 14.095,159.340 14.069 C 159.165 14.001,158.135 14.348,156.875 14.899 C 156.273 15.162,155.768 15.327,155.751 15.267 C 155.735 15.206,155.524 15.320,155.282 15.520 C 155.041 15.719,153.719 16.330,152.344 16.875 C 150.090 17.770,148.779 18.342,145.313 19.941 C 144.711 20.218,144.148 20.462,144.063 20.483 C 143.749 20.559,141.976 21.315,139.648 22.364 C 138.337 22.954,137.107 23.437,136.914 23.437 C 136.721 23.438,136.563 23.555,136.563 23.698 C 136.563 23.841,136.387 23.959,136.172 23.960 C 135.957 23.960,135.078 24.288,134.219 24.687 C 133.359 25.086,132.586 25.427,132.500 25.443 C 132.414 25.460,131.781 25.729,131.094 26.041 C 126.821 27.981,125.043 28.750,124.830 28.750 C 124.732 28.750,123.814 29.166,122.789 29.675 C 121.764 30.183,120.848 30.588,120.754 30.574 C 120.661 30.560,120.136 30.769,119.589 31.039 C 119.042 31.309,116.839 32.260,114.693 33.151 C 112.548 34.043,110.579 34.873,110.318 34.997 C 110.057 35.120,109.292 35.487,108.618 35.813 C 107.944 36.139,107.311 36.415,107.212 36.425 C 107.113 36.436,106.487 36.682,105.821 36.972 C 105.156 37.262,104.566 37.500,104.512 37.500 C 104.457 37.500,103.243 38.042,101.815 38.704 C 98.939 40.037,98.154 40.368,97.583 40.488 C 94.283 41.178,90.091 47.623,89.554 52.835 C 89.475 53.596,89.399 76.789,89.385 104.375 L 89.359 154.531 88.039 155.096 C 87.313 155.407,86.156 155.924,85.469 156.245 C 82.894 157.445,80.601 158.437,80.403 158.437 C 80.205 158.437,79.078 158.924,76.406 160.161 C 75.719 160.480,75.086 160.758,75.000 160.780 C 74.914 160.801,74.281 161.066,73.594 161.368 C 72.906 161.670,71.148 162.413,69.688 163.020 C 68.227 163.627,66.750 164.281,66.406 164.473 C 66.063 164.665,65.711 164.835,65.625 164.852 C 65.539 164.868,64.906 165.129,64.219 165.430 C 63.531 165.732,61.798 166.466,60.367 167.060 C 58.936 167.655,57.424 168.365,57.008 168.638 C 56.591 168.911,56.250 169.040,56.250 168.925 C 56.250 168.809,55.863 168.926,55.391 169.183 C 54.918 169.441,53.336 170.156,51.875 170.773 C 50.414 171.389,48.821 172.100,48.334 172.353 C 47.847 172.606,47.327 172.812,47.178 172.812 C 47.028 172.812,45.548 173.460,43.888 174.251 C 42.228 175.043,40.710 175.722,40.513 175.762 C 40.168 175.831,39.491 176.111,37.188 177.138 C 36.586 177.406,35.953 177.651,35.781 177.683 C 35.609 177.716,34.657 178.103,33.666 178.544 C 32.674 178.985,31.793 179.350,31.709 179.354 C 31.625 179.359,31.137 179.579,30.625 179.844 C 30.113 180.109,29.621 180.319,29.531 180.313 C 29.442 180.306,28.950 180.516,28.437 180.781 C 27.925 181.046,27.431 181.253,27.338 181.241 C 27.246 181.229,26.647 181.499,26.007 181.840 C 24.711 182.530,23.859 182.905,20.000 184.479 C 18.539 185.076,16.219 186.090,14.844 186.735 C 13.469 187.379,12.203 187.948,12.031 188.000 C 7.478 189.364,1.254 194.411,1.472 196.563 C 1.481 196.648,1.350 197.070,1.182 197.500 C 1.013 197.930,0.830 198.492,0.774 198.750 C 0.718 199.008,0.651 199.219,0.625 199.219 C 0.143 199.219,-0.105 315.773,0.372 317.500 C 0.932 319.522,1.239 320.289,2.184 322.031 C 3.257 324.010,5.501 326.562,6.167 326.563 C 6.385 326.563,6.562 326.686,6.562 326.837 C 6.562 326.988,7.020 327.292,7.578 327.513 C 8.137 327.733,9.648 328.399,10.938 328.993 C 12.227 329.587,13.422 330.106,13.594 330.146 C 13.886 330.215,15.156 330.767,18.356 332.213 C 19.085 332.543,19.742 332.813,19.818 332.813 C 19.893 332.813,21.039 333.314,22.365 333.926 C 23.691 334.539,25.916 335.514,27.310 336.093 C 28.704 336.672,30.406 337.393,31.094 337.695 C 31.781 337.996,32.414 338.257,32.500 338.274 C 32.586 338.291,33.219 338.564,33.906 338.881 C 37.246 340.421,37.711 340.625,37.889 340.625 C 38.152 340.625,42.124 342.410,43.281 343.048 C 43.797 343.333,44.251 343.543,44.291 343.516 C 44.330 343.489,45.174 343.828,46.166 344.269 C 47.157 344.711,48.461 345.249,49.063 345.465 C 50.252 345.892,52.697 346.948,54.276 347.717 C 54.824 347.983,55.322 348.149,55.384 348.085 C 55.446 348.021,55.842 348.195,56.264 348.471 C 56.686 348.747,58.789 349.704,60.938 350.597 C 63.086 351.490,65.266 352.427,65.781 352.680 C 66.297 352.932,66.795 353.101,66.889 353.054 C 66.982 353.007,67.404 353.195,67.826 353.471 C 68.248 353.747,70.352 354.704,72.500 355.597 C 74.648 356.490,76.887 357.459,77.476 357.751 C 78.064 358.042,78.626 358.253,78.726 358.218 C 78.825 358.184,79.188 358.340,79.531 358.564 C 79.875 358.789,81.914 359.706,84.063 360.601 C 86.211 361.496,88.982 362.711,90.220 363.301 C 91.458 363.892,92.607 364.375,92.773 364.375 C 92.939 364.375,93.472 364.579,93.959 364.829 C 96.550 366.157,100.253 367.844,100.938 368.008 C 103.529 368.629,108.915 368.358,110.573 367.523 C 110.859 367.378,111.445 367.123,111.875 366.954 C 112.305 366.785,113.304 366.347,114.097 365.980 C 114.889 365.613,115.617 365.312,115.716 365.312 C 115.814 365.312,116.853 364.886,118.025 364.364 C 119.197 363.842,120.578 363.229,121.094 363.001 C 121.609 362.774,122.383 362.431,122.813 362.240 C 123.242 362.049,125.141 361.244,127.031 360.450 C 128.922 359.657,130.602 358.879,130.766 358.722 C 130.929 358.566,131.243 358.437,131.463 358.438 C 131.683 358.438,133.064 357.875,134.531 357.188 C 135.999 356.500,137.263 355.938,137.340 355.938 C 137.418 355.938,138.294 355.571,139.288 355.123 C 140.281 354.674,141.551 354.112,142.109 353.873 C 142.668 353.633,143.652 353.211,144.297 352.935 C 144.941 352.658,145.877 352.236,146.376 351.997 C 146.875 351.758,147.397 351.563,147.536 351.563 C 147.675 351.563,148.884 351.059,150.222 350.443 C 151.561 349.827,152.938 349.206,153.281 349.063 C 153.625 348.919,155.001 348.298,156.340 347.682 C 157.679 347.066,158.865 346.563,158.976 346.563 C 159.087 346.562,159.749 346.295,160.448 345.968 C 161.147 345.642,162.281 345.141,162.969 344.856 C 163.656 344.570,164.617 344.134,165.103 343.887 C 165.590 343.640,166.114 343.438,166.268 343.437 C 166.423 343.437,167.642 342.938,168.978 342.327 C 172.083 340.907,172.344 340.791,174.219 340.000 C 175.078 339.637,176.063 339.216,176.406 339.063 C 176.750 338.909,177.734 338.485,178.594 338.119 C 179.453 337.754,180.648 337.245,181.250 336.988 C 181.852 336.731,182.695 336.376,183.125 336.200 C 183.555 336.024,184.304 335.682,184.791 335.440 C 185.278 335.198,185.797 335.000,185.944 335.000 C 186.092 335.000,187.452 334.429,188.966 333.732 C 190.480 333.034,192.035 332.331,192.422 332.169 C 192.809 332.007,193.441 331.733,193.828 331.559 C 194.576 331.223,195.768 331.350,196.360 331.829 C 196.557 331.988,198.125 332.704,199.844 333.420 C 203.082 334.770,204.601 335.441,205.938 336.113 C 206.367 336.329,206.789 336.508,206.875 336.512 C 206.961 336.516,207.994 336.950,209.170 337.478 C 210.346 338.006,211.403 338.438,211.518 338.438 C 211.634 338.438,212.253 338.719,212.895 339.063 C 213.537 339.407,214.063 339.602,214.063 339.496 C 214.063 339.390,214.424 339.540,214.866 339.829 C 215.308 340.119,216.186 340.539,216.819 340.763 C 217.932 341.157,219.751 341.932,222.344 343.116 C 223.031 343.430,224.086 343.905,224.688 344.170 C 225.289 344.436,226.832 345.118,228.116 345.686 C 229.400 346.254,230.525 346.724,230.616 346.730 C 230.707 346.736,231.063 346.898,231.406 347.090 C 231.750 347.281,233.227 347.935,234.688 348.542 C 236.148 349.149,237.906 349.893,238.594 350.195 C 239.281 350.496,239.914 350.754,240.000 350.767 C 240.086 350.780,240.303 350.884,240.482 350.998 C 240.660 351.113,242.348 351.853,244.232 352.643 C 246.115 353.433,248.043 354.295,248.516 354.557 C 248.988 354.820,249.375 354.946,249.375 354.836 C 249.375 354.726,249.832 354.913,250.391 355.251 C 250.949 355.590,251.758 355.969,252.188 356.095 C 252.913 356.308,254.277 356.895,257.813 358.516 C 258.586 358.871,259.483 359.292,259.807 359.453 C 260.130 359.613,260.904 359.929,261.526 360.155 C 262.147 360.381,263.359 360.890,264.219 361.285 C 265.078 361.681,265.852 362.016,265.938 362.030 C 266.023 362.044,266.586 362.285,267.188 362.567 C 269.220 363.517,271.893 364.688,272.032 364.688 C 272.109 364.687,273.159 365.168,274.367 365.756 C 275.574 366.344,276.563 366.750,276.563 366.658 C 276.562 366.566,276.924 366.727,277.366 367.017 C 279.767 368.591,286.109 368.892,288.672 367.555 C 289.402 367.174,290.000 366.953,290.000 367.063 C 290.000 367.174,290.211 367.089,290.469 366.875 C 290.727 366.661,290.938 366.591,290.938 366.719 C 290.938 366.847,291.163 366.765,291.438 366.536 C 291.713 366.308,292.128 366.093,292.360 366.059 C 292.592 366.025,293.703 365.562,294.829 365.030 C 295.955 364.498,297.019 364.063,297.193 364.063 C 297.366 364.062,297.753 363.927,298.051 363.762 C 299.224 363.113,302.111 361.875,302.452 361.875 C 302.650 361.875,302.813 361.758,302.813 361.615 C 302.813 361.471,302.988 361.353,303.203 361.351 C 303.418 361.349,304.218 361.045,304.981 360.674 C 305.743 360.303,306.476 360.000,306.609 360.000 C 306.742 360.000,307.876 359.525,309.129 358.944 C 310.381 358.363,312.672 357.358,314.219 356.711 C 315.766 356.064,317.875 355.152,318.906 354.685 C 323.162 352.757,323.751 352.500,323.922 352.500 C 324.021 352.500,324.901 352.133,325.879 351.684 C 327.781 350.811,330.075 349.794,331.094 349.373 C 331.438 349.231,332.814 348.611,334.153 347.995 C 335.491 347.379,336.677 346.875,336.788 346.875 C 336.899 346.875,337.632 346.585,338.417 346.231 C 339.202 345.876,340.303 345.388,340.864 345.145 C 341.425 344.903,342.339 344.504,342.895 344.259 C 343.451 344.014,345.313 343.221,347.031 342.496 C 348.750 341.771,351.188 340.702,352.450 340.120 C 353.711 339.538,354.860 339.063,355.003 339.063 C 355.145 339.063,355.660 338.864,356.147 338.621 C 356.633 338.378,357.523 337.967,358.125 337.707 C 358.727 337.447,359.732 337.012,360.360 336.742 C 360.987 336.471,361.577 336.250,361.669 336.250 C 361.762 336.250,363.077 335.679,364.591 334.982 C 366.105 334.284,367.625 333.596,367.969 333.451 C 370.258 332.490,371.586 331.905,375.156 330.284 C 376.016 329.894,376.878 329.545,377.072 329.508 C 381.671 328.638,387.271 323.028,388.580 317.981 C 389.397 314.829,389.299 202.183,388.476 199.531 C 387.775 197.270,387.155 195.861,386.725 195.552 C 386.550 195.425,386.521 195.320,386.662 195.317 C 387.428 195.303,383.151 190.625,382.372 190.625 C 382.098 190.625,381.875 190.501,381.875 190.349 C 381.875 190.047,378.754 188.438,378.168 188.438 C 377.968 188.437,377.560 188.312,377.261 188.160 C 376.963 188.007,376.227 187.667,375.625 187.404 C 375.023 187.141,373.576 186.492,372.408 185.963 C 371.240 185.433,370.201 185.000,370.098 185.000 C 369.996 185.000,369.334 184.730,368.628 184.400 C 367.922 184.070,366.676 183.507,365.859 183.150 C 365.043 182.792,363.707 182.206,362.891 181.847 C 362.074 181.488,361.125 181.082,360.781 180.946 C 360.438 180.810,359.453 180.377,358.594 179.983 C 357.734 179.589,356.750 179.168,356.406 179.048 C 355.666 178.789,353.738 177.934,350.938 176.622 C 349.820 176.099,348.155 175.376,347.236 175.016 C 346.317 174.655,344.521 173.872,343.245 173.274 C 341.968 172.676,340.865 172.188,340.794 172.188 C 340.723 172.188,338.722 171.336,336.348 170.296 C 333.974 169.256,330.695 167.829,329.063 167.126 C 327.430 166.423,325.234 165.458,324.182 164.981 C 323.131 164.505,321.514 163.807,320.589 163.429 C 319.663 163.051,318.046 162.347,316.995 161.866 C 315.944 161.385,314.326 160.682,313.401 160.305 C 312.476 159.927,310.692 159.142,309.437 158.559 C 308.181 157.977,307.033 157.500,306.884 157.500 C 306.735 157.500,306.215 157.295,305.728 157.044 C 304.056 156.181,300.623 154.688,300.312 154.688 C 300.106 154.688,299.993 137.631,299.980 104.453 C 299.960 53.786,299.947 52.068,299.581 50.589 C 298.979 48.162,296.029 43.137,295.511 43.656 C 295.402 43.765,295.313 43.645,295.313 43.390 C 295.313 42.445,291.961 40.359,288.125 38.915 C 286.827 38.427,286.170 38.152,283.594 37.021 C 283.078 36.794,282.164 36.402,281.563 36.150 C 280.012 35.499,277.507 34.411,276.406 33.910 C 275.891 33.676,274.906 33.249,274.219 32.961 C 273.531 32.673,272.336 32.158,271.563 31.816 C 270.789 31.474,269.805 31.049,269.375 30.871 C 268.945 30.694,268.220 30.355,267.764 30.118 C 267.308 29.881,266.784 29.688,266.599 29.688 C 266.415 29.688,265.171 29.183,263.835 28.567 C 262.499 27.951,260.844 27.196,260.156 26.889 C 259.469 26.582,258.203 26.014,257.344 25.627 C 256.484 25.239,255.641 24.890,255.469 24.851 C 255.297 24.812,254.453 24.469,253.594 24.089 C 252.734 23.708,251.750 23.280,251.406 23.137 C 249.077 22.166,248.169 21.777,247.344 21.397 C 244.265 19.977,241.485 18.750,241.347 18.750 C 241.128 18.750,239.088 17.854,238.055 17.303 C 237.586 17.053,237.132 16.848,237.045 16.847 C 236.902 16.846,235.421 16.234,232.969 15.165 C 232.453 14.940,230.977 14.308,229.688 13.760 C 226.426 12.375,225.350 11.904,223.886 11.219 C 223.187 10.892,222.523 10.625,222.411 10.625 C 222.298 10.625,221.393 10.261,220.400 9.816 C 219.407 9.371,218.031 8.757,217.344 8.451 C 216.656 8.144,215.427 7.594,214.613 7.228 C 213.798 6.862,213.040 6.563,212.928 6.563 C 212.816 6.563,212.147 6.292,211.440 5.962 C 210.734 5.632,209.523 5.088,208.750 4.753 C 207.977 4.418,206.691 3.851,205.894 3.493 C 205.096 3.135,204.077 2.750,203.628 2.637 C 203.180 2.524,202.813 2.328,202.813 2.201 C 202.813 1.996,201.760 1.494,199.418 0.582 C 198.348 0.165,192.262 -0.025,190.694 0.310 M197.628 34.458 C 197.987 34.658,198.352 34.836,198.438 34.853 C 198.523 34.871,199.086 35.113,199.688 35.392 C 202.782 36.826,205.020 37.813,205.177 37.813 C 205.274 37.813,206.121 38.164,207.061 38.594 C 208.000 39.023,208.842 39.375,208.933 39.375 C 209.086 39.375,209.631 39.612,213.594 41.402 C 215.274 42.161,216.156 42.493,216.426 42.466 C 216.519 42.457,216.905 42.652,217.282 42.900 C 217.660 43.147,219.868 44.148,222.188 45.124 C 224.508 46.100,226.688 47.028,227.031 47.186 C 230.410 48.743,232.591 49.688,232.809 49.688 C 232.954 49.688,233.753 49.992,234.583 50.364 C 235.414 50.736,236.199 51.017,236.328 50.989 C 236.457 50.961,236.563 51.078,236.563 51.250 C 236.563 51.422,236.668 51.541,236.797 51.514 C 236.926 51.487,237.734 51.777,238.594 52.159 C 239.453 52.541,240.438 52.970,240.781 53.114 C 241.125 53.257,242.007 53.640,242.741 53.963 L 244.076 54.551 242.116 55.420 C 241.038 55.899,239.451 56.632,238.589 57.051 C 237.727 57.470,236.923 57.813,236.801 57.812 C 236.679 57.812,235.767 58.179,234.774 58.628 C 232.546 59.635,231.066 60.281,229.844 60.780 C 228.716 61.240,228.014 61.544,225.156 62.813 C 223.953 63.346,222.652 63.916,222.266 64.079 C 221.879 64.242,221.246 64.508,220.859 64.670 C 220.473 64.833,219.496 65.255,218.689 65.608 C 217.882 65.961,217.073 66.250,216.892 66.250 C 216.711 66.250,216.563 66.391,216.563 66.562 C 216.563 66.734,216.457 66.853,216.328 66.825 C 216.045 66.766,215.305 67.047,213.438 67.922 C 212.664 68.285,211.926 68.549,211.797 68.510 C 211.668 68.470,211.563 68.586,211.563 68.768 C 211.563 68.950,211.422 69.012,211.250 68.906 C 211.078 68.800,210.938 68.885,210.938 69.096 C 210.938 69.307,210.845 69.387,210.732 69.274 C 210.619 69.160,210.338 69.225,210.107 69.416 C 209.876 69.607,209.688 69.660,209.688 69.534 C 209.688 69.407,209.341 69.530,208.917 69.808 C 208.494 70.085,208.011 70.313,207.845 70.313 C 207.679 70.313,206.585 70.748,205.412 71.280 C 200.336 73.583,200.023 73.719,196.557 75.137 L 194.520 75.969 192.651 75.147 C 189.971 73.969,189.822 73.906,186.719 72.621 C 185.172 71.981,183.766 71.357,183.594 71.233 C 183.422 71.110,182.227 70.585,180.938 70.067 C 179.648 69.550,178.172 68.902,177.656 68.627 C 177.141 68.353,176.631 68.128,176.524 68.127 C 176.417 68.126,175.644 67.815,174.805 67.435 C 173.967 67.056,173.211 66.727,173.125 66.704 C 172.947 66.657,170.652 65.633,168.125 64.473 C 167.180 64.039,166.158 63.636,165.855 63.578 C 165.551 63.519,164.229 62.948,162.918 62.309 C 161.606 61.669,160.342 61.146,160.110 61.146 C 159.878 61.146,159.688 61.029,159.688 60.885 C 159.688 60.742,159.475 60.625,159.215 60.625 C 158.954 60.625,158.497 60.489,158.199 60.322 C 157.900 60.155,156.531 59.516,155.156 58.901 C 153.781 58.286,152.412 57.649,152.114 57.485 C 151.815 57.321,151.288 57.188,150.942 57.188 C 150.596 57.188,150.313 57.058,150.313 56.899 C 150.313 56.741,149.785 56.442,149.141 56.236 C 148.496 56.031,147.835 55.738,147.672 55.587 C 147.509 55.436,147.112 55.313,146.790 55.313 C 145.290 55.313,145.302 54.463,146.811 53.902 C 147.620 53.602,148.738 53.082,149.297 52.746 C 149.855 52.411,150.313 52.226,150.313 52.336 C 150.313 52.446,150.699 52.330,151.172 52.080 C 151.645 51.830,152.945 51.238,154.063 50.766 C 155.180 50.294,156.823 49.577,157.714 49.172 C 158.606 48.768,159.485 48.438,159.667 48.438 C 159.850 48.438,160.000 48.320,160.000 48.177 C 160.000 48.034,160.176 47.905,160.391 47.892 C 160.780 47.866,163.481 46.763,167.031 45.177 C 168.063 44.716,169.188 44.214,169.531 44.062 C 170.527 43.619,173.183 42.475,174.375 41.975 C 174.977 41.723,175.891 41.323,176.406 41.086 C 176.922 40.850,178.258 40.282,179.375 39.824 C 180.492 39.365,182.039 38.706,182.813 38.359 C 183.586 38.011,184.992 37.389,185.938 36.976 C 186.883 36.563,187.900 36.091,188.199 35.925 C 188.497 35.760,188.872 35.625,189.031 35.625 C 189.191 35.625,190.465 35.081,191.864 34.417 C 194.572 33.131,195.254 33.136,197.628 34.458 M122.734 79.462 C 122.949 79.628,123.125 79.672,123.125 79.559 C 123.125 79.445,123.441 79.528,123.828 79.743 C 124.215 79.957,124.637 80.103,124.766 80.066 C 124.895 80.030,125.000 80.141,125.000 80.313 C 125.000 80.484,125.181 80.625,125.403 80.625 C 125.624 80.625,126.357 80.906,127.031 81.250 C 127.705 81.594,128.509 81.875,128.816 81.875 C 129.123 81.875,129.375 81.987,129.375 82.125 C 129.375 82.262,129.902 82.564,130.547 82.796 C 131.191 83.028,132.352 83.502,133.125 83.849 C 133.898 84.196,134.602 84.504,134.688 84.534 C 134.773 84.563,135.547 84.900,136.406 85.282 C 137.266 85.665,138.320 86.127,138.750 86.308 C 139.180 86.490,139.883 86.820,140.313 87.041 C 140.742 87.262,141.234 87.462,141.406 87.486 C 141.718 87.528,144.725 88.852,145.635 89.347 C 145.899 89.491,146.567 89.707,147.120 89.829 C 147.673 89.950,148.125 90.203,148.125 90.389 C 148.125 90.576,148.204 90.650,148.301 90.553 C 148.398 90.456,149.268 90.776,150.236 91.264 C 151.203 91.752,152.108 92.080,152.247 91.994 C 152.386 91.908,152.500 91.955,152.500 92.097 C 152.500 92.239,153.590 92.767,154.922 93.270 C 156.254 93.773,157.430 94.310,157.535 94.463 C 157.640 94.616,157.813 94.735,157.919 94.729 C 158.092 94.718,159.147 95.146,162.031 96.395 C 162.547 96.618,163.531 97.044,164.219 97.340 C 166.629 98.381,167.664 98.849,168.508 99.279 C 168.976 99.518,169.438 99.699,169.533 99.681 C 169.628 99.663,170.722 100.125,171.963 100.709 C 173.203 101.292,175.063 102.103,176.094 102.511 C 177.125 102.919,178.145 103.382,178.359 103.540 C 178.668 103.766,178.750 111.737,178.750 141.573 C 178.750 171.602,178.670 179.305,178.359 179.245 C 178.145 179.205,177.336 178.880,176.563 178.523 C 174.877 177.747,173.651 177.264,173.438 177.294 C 173.352 177.305,172.859 177.081,172.344 176.794 C 171.496 176.323,166.069 173.876,164.531 173.272 C 164.188 173.136,163.801 173.048,163.672 173.075 C 163.543 173.103,163.438 172.984,163.438 172.813 C 163.438 172.641,163.332 172.525,163.203 172.555 C 162.965 172.610,162.784 172.535,158.906 170.778 C 157.703 170.233,156.198 169.615,155.562 169.405 C 154.925 169.195,153.730 168.681,152.905 168.263 C 152.081 167.845,151.304 167.502,151.180 167.501 C 151.056 167.501,150.001 167.038,148.836 166.474 C 147.672 165.910,146.016 165.186,145.156 164.865 C 144.297 164.544,142.285 163.669,140.684 162.922 C 139.084 162.174,137.693 161.563,137.594 161.563 C 137.494 161.563,136.834 161.293,136.128 160.963 C 132.466 159.253,130.625 158.492,130.620 158.688 C 130.618 158.808,130.512 158.762,130.386 158.585 C 130.260 158.409,129.523 158.001,128.750 157.679 C 127.977 157.357,126.772 156.834,126.073 156.516 C 125.374 156.198,124.578 155.938,124.302 155.938 C 124.027 155.938,123.755 155.832,123.698 155.703 C 123.641 155.574,123.066 155.225,122.422 154.927 L 121.250 154.385 121.250 116.577 C 121.250 75.488,121.140 78.228,122.734 79.462 M268.125 116.766 C 268.125 154.171,268.121 154.435,267.500 154.597 C 267.156 154.687,266.875 154.885,266.875 155.036 C 266.875 155.188,266.682 155.313,266.445 155.313 C 266.209 155.313,265.189 155.689,264.180 156.150 C 263.170 156.611,262.273 157.004,262.188 157.024 C 261.363 157.211,259.688 157.991,259.688 158.188 C 259.688 158.325,259.582 158.414,259.453 158.386 C 258.986 158.284,257.500 158.825,257.500 159.096 C 257.500 159.250,257.307 159.375,257.070 159.375 C 256.834 159.375,255.814 159.752,254.805 160.213 C 253.795 160.673,252.896 161.060,252.808 161.072 C 252.284 161.143,248.263 162.978,248.177 163.186 C 248.120 163.324,247.891 163.438,247.669 163.438 C 247.447 163.438,246.439 163.814,245.430 164.275 C 244.420 164.736,243.523 165.129,243.438 165.149 C 242.613 165.336,240.938 166.116,240.938 166.313 C 240.938 166.450,240.832 166.539,240.703 166.511 C 240.236 166.409,238.750 166.950,238.750 167.221 C 238.750 167.375,238.537 167.500,238.277 167.500 C 238.017 167.500,237.560 167.637,237.261 167.805 C 236.764 168.084,234.429 169.105,234.063 169.204 C 233.190 169.440,231.563 170.168,231.563 170.323 C 231.563 170.432,231.378 170.521,231.153 170.521 C 230.928 170.521,229.979 170.887,229.044 171.334 C 227.415 172.114,225.016 173.178,224.688 173.267 C 223.610 173.558,222.188 174.254,222.188 174.490 C 222.188 174.656,222.104 174.708,222.001 174.605 C 221.789 174.393,218.069 175.921,217.778 176.340 C 217.672 176.492,217.532 176.592,217.465 176.564 C 217.152 176.429,215.625 176.975,215.625 177.221 C 215.625 177.375,215.520 177.471,215.391 177.436 C 215.001 177.329,212.813 178.156,212.813 178.410 C 212.813 178.540,212.637 178.647,212.422 178.649 C 212.207 178.650,211.716 178.753,211.331 178.877 L 210.630 179.103 210.549 141.296 C 210.505 120.503,210.539 103.511,210.625 103.537 C 210.920 103.626,215.156 101.740,215.386 101.417 C 215.512 101.239,215.618 101.188,215.620 101.303 C 215.623 101.418,216.613 101.031,217.821 100.444 C 219.028 99.856,220.136 99.375,220.283 99.375 C 220.521 99.375,222.468 98.569,225.156 97.358 C 225.672 97.125,226.797 96.630,227.656 96.256 C 228.516 95.882,229.586 95.380,230.034 95.140 C 230.483 94.900,230.940 94.794,231.050 94.904 C 231.160 95.014,231.250 94.964,231.250 94.792 C 231.250 94.620,231.426 94.477,231.641 94.474 C 231.855 94.470,233.276 93.884,234.797 93.171 C 236.318 92.458,237.684 91.875,237.834 91.875 C 237.984 91.875,238.589 91.604,239.179 91.272 C 239.770 90.941,240.336 90.753,240.439 90.855 C 240.541 90.958,240.625 90.894,240.625 90.713 C 240.625 90.532,241.363 90.149,242.266 89.862 C 243.168 89.574,244.609 89.005,245.469 88.597 C 249.272 86.791,251.302 85.891,251.804 85.790 C 252.342 85.681,253.900 85.034,256.563 83.813 C 257.336 83.458,259.375 82.580,261.094 81.861 C 262.813 81.142,264.500 80.401,264.844 80.214 C 265.188 80.027,265.654 79.843,265.880 79.805 C 266.106 79.768,266.598 79.530,266.973 79.278 C 267.349 79.026,267.762 78.883,267.891 78.960 C 268.020 79.036,268.125 96.050,268.125 116.766 M106.065 182.454 C 106.156 182.600,106.902 182.973,107.724 183.283 C 108.546 183.592,110.382 184.387,111.803 185.048 C 113.224 185.709,114.464 186.250,114.557 186.250 C 114.651 186.250,115.496 186.602,116.436 187.031 C 117.375 187.461,118.198 187.813,118.265 187.813 C 118.331 187.813,119.065 188.117,119.896 188.490 C 120.727 188.863,121.477 189.184,121.563 189.204 C 121.648 189.224,122.017 189.407,122.381 189.609 C 122.745 189.812,123.132 189.889,123.240 189.781 C 123.349 189.672,123.438 189.732,123.438 189.914 C 123.438 190.096,123.824 190.335,124.297 190.446 C 124.770 190.556,125.578 190.845,126.094 191.088 C 129.529 192.703,130.618 193.178,130.783 193.129 C 130.886 193.099,131.293 193.286,131.688 193.545 C 132.082 193.803,133.305 194.390,134.405 194.850 C 135.506 195.309,137.295 196.094,138.381 196.593 C 139.467 197.092,140.529 197.500,140.741 197.500 C 140.952 197.500,141.259 197.632,141.422 197.793 C 141.585 197.954,142.835 198.532,144.199 199.077 C 145.563 199.622,146.899 200.178,147.168 200.313 C 147.667 200.563,149.406 201.322,149.688 201.412 C 149.773 201.439,150.656 201.836,151.650 202.293 C 152.643 202.751,153.584 203.125,153.740 203.125 C 155.331 203.125,153.418 204.289,148.594 206.256 C 148.250 206.396,147.195 206.858,146.250 207.281 C 142.109 209.138,141.561 209.375,141.419 209.375 C 141.336 209.375,140.500 209.727,139.561 210.156 C 138.621 210.586,137.772 210.938,137.673 210.938 C 137.574 210.938,136.390 211.483,135.040 212.149 C 133.691 212.815,132.040 213.535,131.372 213.749 C 130.703 213.963,129.664 214.436,129.063 214.799 C 128.461 215.163,127.898 215.449,127.813 215.435 C 127.610 215.402,125.729 216.135,124.531 216.714 C 124.016 216.963,122.842 217.456,121.923 217.809 C 119.850 218.607,115.853 220.413,114.313 221.248 C 113.677 221.593,112.984 221.875,112.771 221.875 C 112.393 221.875,111.539 222.240,107.567 224.098 C 105.364 225.129,104.735 225.047,101.241 223.277 C 100.386 222.844,99.685 222.597,99.683 222.729 C 99.680 222.861,99.575 222.824,99.448 222.646 C 99.212 222.314,94.823 220.313,94.331 220.313 C 94.179 220.313,92.545 219.598,90.700 218.725 C 88.854 217.852,87.098 217.119,86.797 217.096 C 86.496 217.073,86.250 216.935,86.250 216.790 C 86.250 216.645,86.109 216.613,85.938 216.719 C 85.766 216.825,85.625 216.763,85.625 216.581 C 85.625 216.399,85.520 216.280,85.391 216.316 C 85.164 216.379,84.456 216.084,81.077 214.521 C 80.209 214.120,79.295 213.747,79.046 213.692 C 78.797 213.638,78.511 213.481,78.409 213.344 C 78.308 213.206,77.921 213.071,77.550 213.043 C 77.179 213.015,76.875 212.873,76.875 212.728 C 76.875 212.582,76.762 212.533,76.623 212.619 C 76.484 212.705,75.767 212.432,75.028 212.012 C 74.290 211.593,73.547 211.250,73.376 211.250 C 73.205 211.250,72.059 210.767,70.830 210.177 C 68.903 209.252,67.827 208.787,67.188 208.603 C 67.102 208.578,66.328 208.233,65.469 207.836 C 64.609 207.439,63.484 206.936,62.969 206.717 C 62.453 206.498,61.216 205.938,60.219 205.473 C 59.223 205.008,58.238 204.594,58.032 204.553 C 57.825 204.512,57.268 204.291,56.793 204.062 L 55.930 203.646 56.793 203.253 C 60.484 201.574,61.945 200.938,62.111 200.938 C 62.216 200.938,62.874 200.669,63.573 200.341 C 64.272 200.012,65.898 199.297,67.188 198.750 C 69.396 197.814,71.117 197.059,73.281 196.077 C 78.134 193.876,79.176 193.438,79.559 193.438 C 79.802 193.438,80.000 193.273,80.000 193.073 C 80.000 192.872,80.086 192.794,80.191 192.899 C 80.295 193.004,80.891 192.816,81.514 192.482 C 82.137 192.148,82.772 191.875,82.925 191.875 C 83.078 191.875,84.275 191.398,85.586 190.815 C 89.195 189.209,90.749 188.549,91.094 188.474 C 91.266 188.437,91.688 188.225,92.031 188.002 C 92.375 187.779,93.430 187.305,94.375 186.948 C 95.320 186.591,96.516 186.093,97.031 185.840 C 97.547 185.587,98.531 185.140,99.219 184.845 C 100.509 184.293,102.161 183.560,104.063 182.698 C 105.305 182.134,105.828 182.070,106.065 182.454 M287.344 183.627 C 287.859 183.853,289.367 184.536,290.694 185.144 C 292.021 185.752,293.219 186.250,293.355 186.250 C 293.491 186.250,294.128 186.532,294.770 186.876 C 295.412 187.220,295.938 187.413,295.938 187.306 C 295.938 187.199,296.113 187.257,296.328 187.435 C 296.543 187.613,298.898 188.696,301.563 189.841 C 304.227 190.987,307.180 192.281,308.125 192.717 C 309.070 193.153,309.984 193.537,310.156 193.569 C 310.328 193.601,310.924 193.869,311.481 194.164 C 312.038 194.459,312.600 194.721,312.731 194.746 C 313.086 194.813,316.173 196.148,319.766 197.787 C 320.927 198.317,321.942 198.750,322.023 198.750 C 322.103 198.750,322.911 199.085,323.819 199.495 C 324.726 199.905,326.523 200.692,327.813 201.243 C 332.693 203.333,333.336 203.687,332.656 203.911 C 332.313 204.024,331.155 204.527,330.085 205.027 C 329.014 205.528,327.924 205.938,327.663 205.938 C 327.401 205.938,327.188 206.086,327.188 206.268 C 327.188 206.450,327.057 206.518,326.897 206.420 C 326.737 206.321,326.517 206.383,326.409 206.557 C 326.301 206.732,325.940 206.875,325.607 206.875 C 325.273 206.875,325.000 207.016,325.000 207.188 C 325.000 207.359,324.750 207.500,324.445 207.500 C 324.139 207.500,323.595 207.706,323.236 207.958 C 322.876 208.209,322.493 208.327,322.385 208.218 C 322.276 208.110,322.188 208.193,322.188 208.404 C 322.188 208.615,322.057 208.706,321.897 208.607 C 321.737 208.508,321.524 208.560,321.423 208.722 C 321.323 208.884,320.724 209.188,320.093 209.396 C 319.461 209.605,318.303 210.066,317.519 210.421 C 316.735 210.777,316.023 211.085,315.938 211.107 C 315.506 211.216,313.772 211.976,312.725 212.516 C 312.075 212.851,311.403 213.125,311.231 213.125 C 311.060 213.125,309.904 213.597,308.663 214.173 C 307.422 214.750,304.859 215.890,302.969 216.707 C 301.078 217.523,298.487 218.682,297.210 219.281 C 295.933 219.880,294.615 220.423,294.280 220.487 C 293.946 220.551,293.338 220.823,292.930 221.091 C 292.522 221.358,292.188 221.495,292.188 221.396 C 292.188 221.296,291.801 221.423,291.328 221.677 C 290.855 221.931,289.836 222.408,289.063 222.736 C 288.289 223.064,287.094 223.581,286.406 223.886 C 285.719 224.190,285.086 224.439,285.000 224.438 C 284.914 224.437,284.583 224.576,284.265 224.746 C 283.815 224.987,282.873 224.690,280.046 223.418 C 278.044 222.518,275.982 221.600,275.464 221.379 C 273.989 220.751,272.671 220.212,272.500 220.168 C 272.414 220.146,271.781 219.833,271.094 219.473 C 270.406 219.112,269.773 218.812,269.688 218.805 C 269.347 218.780,267.575 218.074,266.094 217.373 C 262.845 215.835,261.500 215.243,260.069 214.724 C 259.258 214.430,257.996 213.877,257.266 213.495 C 256.535 213.112,255.935 212.908,255.933 213.041 C 255.930 213.173,255.825 213.137,255.698 212.960 C 255.572 212.784,254.836 212.377,254.063 212.056 C 253.289 211.735,251.531 210.979,250.156 210.376 C 248.781 209.772,247.094 209.038,246.406 208.743 C 245.719 208.449,244.643 207.978,244.015 207.698 C 243.388 207.417,242.696 207.188,242.477 207.188 C 242.259 207.188,241.858 206.999,241.587 206.769 C 241.316 206.539,240.250 206.023,239.219 205.624 C 238.188 205.225,237.203 204.799,237.031 204.677 C 236.859 204.556,236.169 204.279,235.497 204.062 L 234.275 203.669 236.747 202.667 C 238.106 202.117,240.098 201.228,241.172 200.693 C 242.246 200.157,243.125 199.790,243.125 199.877 C 243.125 199.964,243.512 199.824,243.984 199.566 C 244.457 199.308,245.406 198.867,246.094 198.587 C 246.781 198.307,248.350 197.596,249.580 197.008 C 250.809 196.419,251.974 195.938,252.167 195.938 C 252.360 195.938,253.322 195.534,254.306 195.041 C 255.289 194.548,256.445 194.037,256.875 193.906 C 257.305 193.776,258.570 193.251,259.688 192.741 C 262.813 191.314,263.969 190.811,266.875 189.615 C 267.305 189.438,268.219 189.001,268.906 188.645 C 269.594 188.289,270.193 188.029,270.238 188.067 C 270.282 188.106,270.722 187.929,271.214 187.675 C 271.706 187.421,272.196 187.301,272.304 187.408 C 272.412 187.516,272.500 187.456,272.500 187.274 C 272.500 187.093,272.992 186.852,273.594 186.739 C 274.195 186.627,274.688 186.376,274.688 186.184 C 274.688 185.991,274.776 185.921,274.883 186.029 C 274.991 186.137,275.482 186.017,275.974 185.762 C 276.466 185.508,276.905 185.331,276.950 185.370 C 276.995 185.409,277.453 185.208,277.969 184.925 C 278.484 184.641,279.398 184.208,280.000 183.961 C 280.602 183.715,281.787 183.230,282.634 182.882 C 284.304 182.198,283.965 182.145,287.344 183.627 M178.750 265.641 L 178.750 303.469 177.578 303.955 C 175.966 304.622,173.220 305.843,171.719 306.560 C 171.031 306.889,169.203 307.672,167.656 308.301 C 166.109 308.930,164.000 309.861,162.969 310.370 C 161.938 310.879,161.049 311.268,160.995 311.235 C 160.941 311.201,160.449 311.387,159.901 311.648 C 159.354 311.908,158.555 312.268,158.125 312.446 C 155.932 313.356,154.702 313.891,153.281 314.550 C 151.516 315.369,149.995 316.000,149.531 316.104 C 149.359 316.142,148.305 316.595,147.188 317.110 C 146.070 317.625,144.489 318.310,143.673 318.633 C 142.857 318.955,142.189 319.333,142.189 319.472 C 142.188 319.611,142.057 319.643,141.897 319.545 C 141.737 319.446,141.517 319.508,141.409 319.682 C 141.301 319.857,141.019 320.000,140.781 320.000 C 140.544 320.000,139.138 320.563,137.656 321.250 C 136.175 321.938,134.905 322.500,134.835 322.500 C 134.764 322.500,133.937 322.852,132.998 323.281 C 132.059 323.711,131.214 324.063,131.121 324.063 C 131.027 324.063,129.858 324.563,128.522 325.175 C 127.187 325.787,125.672 326.480,125.156 326.714 C 122.998 327.697,121.917 328.125,121.593 328.125 C 121.346 328.125,121.250 317.621,121.250 290.462 L 121.250 252.799 123.359 251.847 C 124.520 251.324,125.891 250.680,126.406 250.416 C 126.922 250.153,128.188 249.618,129.219 249.228 C 130.250 248.838,131.727 248.231,132.500 247.879 C 134.716 246.871,137.017 245.842,137.188 245.783 C 138.004 245.500,139.963 244.639,144.021 242.776 C 145.287 242.194,146.342 241.764,146.365 241.819 C 146.388 241.873,147.422 241.416,148.663 240.803 C 149.905 240.189,151.104 239.688,151.328 239.688 C 151.552 239.688,152.043 239.472,152.419 239.209 C 152.795 238.946,154.016 238.387,155.133 237.966 C 156.250 237.546,157.767 236.929,158.504 236.596 C 161.051 235.443,162.969 234.587,163.125 234.532 C 163.653 234.347,164.953 233.776,168.220 232.296 C 170.249 231.377,172.089 230.625,172.309 230.625 C 172.528 230.625,172.812 230.521,172.939 230.394 C 173.108 230.225,178.057 228.017,178.672 227.835 C 178.715 227.823,178.750 244.835,178.750 265.641 M211.563 228.229 C 211.563 228.401,211.655 228.449,211.768 228.336 C 211.881 228.223,212.127 228.257,212.315 228.413 C 212.503 228.568,214.344 229.420,216.406 230.307 C 218.469 231.193,220.578 232.109,221.094 232.341 C 221.609 232.574,222.242 232.810,222.500 232.866 C 222.758 232.923,223.039 233.051,223.125 233.152 C 223.211 233.252,224.336 233.740,225.625 234.235 C 226.914 234.731,228.039 235.211,228.125 235.302 C 228.318 235.508,231.135 236.726,233.438 237.599 C 234.383 237.957,235.242 238.375,235.347 238.527 C 235.453 238.679,235.632 238.783,235.747 238.758 C 235.861 238.733,236.833 239.128,237.907 239.635 C 238.981 240.143,240.454 240.736,241.180 240.953 C 241.906 241.171,242.500 241.491,242.500 241.664 C 242.500 241.837,242.592 241.887,242.704 241.775 C 242.816 241.663,243.344 241.831,243.876 242.150 C 244.408 242.468,245.898 243.129,247.188 243.620 C 248.477 244.110,249.635 244.656,249.761 244.834 C 249.887 245.011,249.993 245.034,249.995 244.884 C 249.998 244.734,250.180 244.761,250.401 244.943 C 250.929 245.382,255.961 247.500,256.475 247.500 C 256.695 247.500,256.875 247.641,256.875 247.812 C 256.875 247.984,256.980 248.095,257.109 248.059 C 257.238 248.023,257.836 248.219,258.438 248.494 C 259.039 248.769,260.727 249.515,262.188 250.152 C 263.648 250.789,265.266 251.498,265.781 251.727 C 266.297 251.957,267.000 252.223,267.344 252.319 C 267.899 252.473,268.269 328.125,267.714 328.125 C 267.435 328.125,261.661 325.714,259.422 324.663 C 257.988 323.989,256.733 323.438,256.635 323.438 C 256.537 323.438,255.461 322.995,254.244 322.454 C 251.256 321.125,249.767 320.474,248.281 319.847 C 247.594 319.556,246.648 319.115,246.180 318.865 C 245.711 318.616,245.219 318.398,245.086 318.382 C 244.831 318.351,243.491 317.796,241.406 316.857 C 237.319 315.017,234.374 313.824,234.370 314.008 C 234.368 314.124,234.262 314.064,234.136 313.875 C 234.010 313.685,233.064 313.218,232.035 312.836 C 231.006 312.453,230.022 312.033,229.848 311.901 C 229.674 311.769,228.898 311.418,228.125 311.120 C 227.352 310.822,226.156 310.321,225.469 310.005 C 224.781 309.690,223.656 309.194,222.969 308.904 C 221.815 308.417,220.343 307.770,217.969 306.708 C 216.775 306.174,214.140 305.040,213.125 304.623 C 212.695 304.446,211.992 304.116,211.563 303.889 L 210.781 303.477 210.702 265.697 C 210.632 232.243,210.676 227.917,211.093 227.917 C 211.351 227.917,211.563 228.057,211.563 228.229 M357.111 265.645 L 357.031 303.477 356.250 303.913 C 355.820 304.153,354.414 304.782,353.125 305.310 C 351.836 305.838,350.300 306.511,349.712 306.807 C 349.124 307.102,348.595 307.306,348.537 307.259 C 348.479 307.213,347.975 307.418,347.419 307.715 C 346.862 308.012,346.336 308.269,346.250 308.287 C 346.164 308.305,345.531 308.569,344.844 308.873 C 344.156 309.178,342.961 309.682,342.188 309.993 C 341.414 310.304,339.938 310.953,338.906 311.436 C 337.875 311.919,336.961 312.326,336.875 312.342 C 336.789 312.357,336.033 312.681,335.195 313.060 C 334.356 313.440,333.622 313.750,333.563 313.750 C 333.504 313.750,332.714 314.087,331.806 314.499 C 329.406 315.590,327.679 316.345,327.500 316.382 C 327.274 316.430,321.329 319.015,319.777 319.742 C 319.052 320.080,318.381 320.342,318.284 320.322 C 318.188 320.302,317.726 320.497,317.258 320.755 C 316.789 321.012,315.141 321.749,313.594 322.391 C 312.047 323.033,310.695 323.684,310.590 323.837 C 310.485 323.991,310.311 324.108,310.203 324.098 C 309.865 324.067,308.958 324.384,307.500 325.045 C 306.727 325.395,305.672 325.860,305.156 326.078 C 304.641 326.296,303.867 326.629,303.438 326.817 C 302.251 327.337,300.251 328.125,300.118 328.125 C 300.053 328.125,300.000 311.106,300.000 290.305 L 300.000 252.485 300.855 252.160 C 301.732 251.826,302.950 251.294,305.177 250.271 C 305.876 249.950,306.552 249.688,306.681 249.688 C 306.809 249.688,307.714 249.320,308.691 248.871 C 310.960 247.830,312.032 247.362,317.188 245.168 C 319.508 244.181,321.540 243.247,321.703 243.093 C 321.866 242.939,322.170 242.813,322.377 242.813 C 322.585 242.813,323.717 242.367,324.893 241.822 C 326.069 241.278,327.102 240.809,327.188 240.781 C 327.724 240.603,329.411 239.875,330.536 239.336 C 331.260 238.989,331.930 238.718,332.024 238.734 C 332.117 238.750,332.613 238.546,333.125 238.281 C 333.637 238.016,334.125 237.796,334.209 237.791 C 334.427 237.779,339.013 235.716,340.313 235.044 C 340.914 234.733,342.004 234.293,342.734 234.065 C 343.465 233.837,344.063 233.532,344.063 233.387 C 344.063 233.243,344.168 233.147,344.297 233.175 C 344.541 233.226,344.864 233.109,347.188 232.124 C 347.961 231.797,348.875 231.415,349.219 231.275 C 350.548 230.737,352.741 229.748,354.688 228.807 C 355.805 228.267,356.825 227.823,356.954 227.819 C 357.084 227.815,357.154 244.837,357.111 265.645 M35.781 229.494 C 37.156 230.144,38.563 230.790,38.906 230.932 C 39.250 231.073,40.152 231.477,40.911 231.831 C 41.670 232.184,42.408 232.400,42.552 232.312 C 42.695 232.223,42.813 232.300,42.813 232.482 C 42.813 232.664,42.967 232.813,43.156 232.813 C 43.345 232.813,44.684 233.375,46.131 234.063 C 47.578 234.750,48.905 235.313,49.080 235.313 C 49.254 235.313,49.744 235.540,50.167 235.817 C 50.591 236.095,50.938 236.224,50.938 236.104 C 50.938 235.984,51.407 236.177,51.981 236.531 C 52.554 236.886,53.293 237.218,53.621 237.269 C 53.950 237.320,54.430 237.496,54.688 237.661 C 54.945 237.825,55.227 237.969,55.313 237.982 C 55.398 237.994,56.172 238.323,57.031 238.712 C 57.891 239.101,59.016 239.606,59.531 239.833 C 60.047 240.061,61.090 240.537,61.849 240.891 C 62.608 241.245,63.346 241.463,63.489 241.374 C 63.633 241.286,63.750 241.362,63.750 241.544 C 63.750 241.726,63.905 241.875,64.094 241.875 C 64.283 241.875,65.622 242.438,67.069 243.125 C 68.516 243.813,69.842 244.375,70.017 244.375 C 70.192 244.375,70.681 244.602,71.105 244.880 C 71.528 245.157,71.875 245.286,71.875 245.167 C 71.875 245.047,72.344 245.239,72.918 245.594 C 73.492 245.948,74.230 246.280,74.559 246.331 C 74.887 246.383,75.367 246.559,75.625 246.723 C 75.883 246.887,76.164 247.032,76.250 247.044 C 76.336 247.057,77.109 247.386,77.969 247.775 C 78.828 248.164,80.023 248.700,80.625 248.965 C 81.227 249.230,82.105 249.650,82.578 249.898 C 83.051 250.145,83.438 250.252,83.438 250.136 C 83.438 250.019,83.626 250.080,83.857 250.272 C 84.088 250.463,84.369 250.527,84.482 250.414 C 84.595 250.301,84.688 250.372,84.688 250.573 C 84.688 250.773,84.843 250.938,85.033 250.938 C 85.224 250.938,86.278 251.367,87.377 251.891 L 89.375 252.844 89.375 290.485 C 89.375 331.583,89.514 328.658,87.603 327.665 C 87.117 327.413,85.523 326.692,84.063 326.063 C 82.602 325.435,80.703 324.606,79.844 324.222 C 78.984 323.838,77.930 323.417,77.500 323.286 C 77.070 323.155,76.578 322.943,76.406 322.815 C 76.234 322.686,74.688 321.987,72.969 321.260 C 71.250 320.533,69.101 319.601,68.194 319.188 C 67.286 318.775,66.441 318.438,66.314 318.438 C 66.188 318.438,65.594 318.176,64.995 317.856 C 64.396 317.537,63.555 317.166,63.125 317.033 C 62.695 316.900,61.035 316.177,59.434 315.427 C 57.834 314.676,56.379 314.063,56.201 314.063 C 56.023 314.063,55.504 313.862,55.048 313.618 C 54.287 313.210,51.989 312.181,50.469 311.566 C 49.118 311.021,47.257 310.199,45.424 309.338 C 44.368 308.843,43.411 308.438,43.298 308.438 C 43.091 308.438,40.973 307.522,39.249 306.689 C 38.750 306.447,38.234 306.250,38.102 306.250 C 37.971 306.250,36.516 305.612,34.869 304.832 L 31.875 303.414 31.875 265.759 L 31.875 228.104 32.578 228.208 C 32.965 228.266,34.406 228.845,35.781 229.494 " stroke="none" fill="#0ca4fc" fill-rule="evenodd"></path><path id="path1" d="M121.401 116.563 C 121.401 137.445,121.439 145.988,121.484 135.547 C 121.530 125.105,121.530 108.020,121.484 97.578 C 121.439 87.137,121.401 95.680,121.401 116.563 " stroke="none" fill="#0cacfc" fill-rule="evenodd"></path><path id="path2" d="" stroke="none" fill="#14acfc" fill-rule="evenodd"></path><path id="path3" d="" stroke="none" fill="#10a4fc" fill-rule="evenodd"></path><path id="path4" d="" stroke="none" fill="#10a4fc" fill-rule="evenodd"></path></g></svg>